<?xml version="1.0" encoding="UTF-8"?>
<svg width="110px" height="110px" viewBox="0 0 110 110" version="1.1" xmlns="http://www.w3.org/2000/svg" xmlns:xlink="http://www.w3.org/1999/xlink">
    <!-- Generator: Sketch 59.1 (86144) - https://sketch.com -->
    <title>icon1</title>
    <desc>Created with Sketch.</desc>
    <g id="页面-1" stroke="none" stroke-width="1" fill="none" fill-rule="evenodd">
        <g id="切图" transform="translate(-310.000000, -1679.000000)">
            <g id="icon1" transform="translate(312.000000, 1681.000000)">
                <circle id="椭圆形" stroke="#FFFFFF" stroke-width="4" fill="#5392F7" cx="53" cy="53" r="53"></circle>
                <g id="编组-6" transform="translate(23.000000, 32.000000)">
                    <path d="M37.0789474,20.2631579 C38.1253816,20.2631579 38.9736842,21.1114605 38.9736842,22.1578947 C38.9736842,23.204329 38.1253816,24.0526316 37.0789474,24.0526316 C36.0325131,24.0526316 35.1842105,23.204329 35.1842105,22.1578947 C35.1842105,21.1114605 36.0325131,20.2631579 37.0789474,20.2631579 Z M25.7105263,11.4210526 C26.7569606,11.4210526 27.6052632,12.2693552 27.6052632,13.3157895 C27.6052632,14.3622237 26.7569606,15.2105263 25.7105263,15.2105263 C24.6640921,15.2105263 23.8157895,14.3622237 23.8157895,13.3157895 C23.8157895,12.2693552 24.6640921,11.4210526 25.7105263,11.4210526 Z M30.7631579,3.84210526 C31.8095922,3.84210526 32.6578947,4.69040784 32.6578947,5.73684211 C32.6578947,6.78327637 31.8095922,7.63157895 30.7631579,7.63157895 C29.7167236,7.63157895 28.8684211,6.78327637 28.8684211,5.73684211 C28.8684211,4.69040784 29.7167236,3.84210526 30.7631579,3.84210526 Z M23.1842105,-5 C24.2306448,-5 25.0789474,-4.15169742 25.0789474,-3.10526316 C25.0789474,-2.0588289 24.2306448,-1.21052632 23.1842105,-1.21052632 C22.1377763,-1.21052632 21.2894737,-2.0588289 21.2894737,-3.10526316 C21.2894737,-4.15169742 22.1377763,-5 23.1842105,-5 Z M24.375197,-1.82104207 L29.6394898,4.32063285 M30.4603458,7.53640989 L26.8230594,12.0830178 M27.451367,13.670221 L35.6983915,21.0009094" id="形状结合" stroke="#FFFFFF" stroke-width="1.26315789" transform="translate(30.131579, 9.526316) rotate(-90.000000) translate(-30.131579, -9.526316) "></path>
                    <path d="M21,39.903666 L21,34.8384036 C21,34.5803074 20.8131611,34.3710348 20.5827859,34.3710348 L12,34.3710348 L12,40.3710348 L20.5827859,40.3710348 C20.8131611,40.3710348 21,40.1619591 21,39.903666" id="Fill-1" fill="#FFFFFF" transform="translate(16.500000, 37.371035) rotate(-90.000000) translate(-16.500000, -37.371035) "></path>
                    <path d="M13.9739377,33.7419418 L13.9739377,28.0001278 L35.3270754,28.0001278 C35.6843572,28.0001278 35.9739377,28.3023186 35.9739377,28.6749704 L35.9739377,33.0669108 C35.9739377,33.439751 35.6843572,33.7419418 35.3270754,33.7419418 L13.9739377,33.7419418 Z" id="Fill-13" fill="#FFFFFF" transform="translate(24.973938, 30.871035) rotate(-90.000000) translate(-24.973938, -30.871035) "></path>
                    <path d="M26.2953008,37.7419418 L26.2953008,32.0001278 L39.6654116,32.0001278 C40.0132399,32.0001278 40.2953008,32.3023186 40.2953008,32.6749704 L40.2953008,37.0669108 C40.2953008,37.439751 40.0132399,37.7419418 39.6654116,37.7419418 L26.2953008,37.7419418 Z" id="Fill-15" fill="#FFFFFF" transform="translate(33.295301, 34.871035) rotate(-90.000000) translate(-33.295301, -34.871035) "></path>
                    <path d="M25.9605195,29.0858538 L25.9605195,23.6562157 L56.3096361,23.6562157 C56.6690575,23.6562157 56.9605195,23.9584066 56.9605195,24.3312467 L56.9605195,28.4110112 C56.9605195,28.783663 56.6690575,29.0858538 56.3096361,29.0858538 L25.9605195,29.0858538 Z" id="Fill-17" fill="#FFFFFF" transform="translate(41.460519, 26.371035) rotate(-90.000000) translate(-41.460519, -26.371035) "></path>
                    <rect id="矩形" fill="#FFFFFF" transform="translate(30.000000, 42.000000) rotate(-90.000000) translate(-30.000000, -42.000000) " x="29" y="12" width="2" height="60"></rect>
                </g>
            </g>
        </g>
    </g>
</svg>