<?xml version="1.0" encoding="UTF-8"?>
<svg width="86px" height="60px" viewBox="0 0 86 60" version="1.1" xmlns="http://www.w3.org/2000/svg" xmlns:xlink="http://www.w3.org/1999/xlink">
    <!-- Generator: Sketch 59.1 (86144) - https://sketch.com -->
    <title>icon2</title>
    <desc>Created with Sketch.</desc>
    <g id="页面-1" stroke="none" stroke-width="1" fill="none" fill-rule="evenodd">
        <g id="切图" transform="translate(-622.000000, -1696.000000)" fill="#C6E2FF">
            <g id="icon2" transform="translate(621.000000, 1696.000000)">
                <path d="M1,25.5654043 L1,59.7426195 L36.6962025,59.7426195 L36.6962025,25.5654043 L10.8734177,25.5654043 C11.8860759,14.9324929 19.4810127,8.35021443 33.6582278,5.81856886 C33.6582278,-0.257380506 21,-2 10.8734177,7.3375562 C4.12236287,13.5625937 0.831223629,19.638543 1,25.5654043 Z" id="路径-3"></path>
                <path d="M51.1265823,25.5654043 L51.1265823,59.7426195 L86.8227848,59.7426195 L86.8227848,25.5654043 L61,25.5654043 C62.0126582,14.9324929 69.6075949,8.35021443 83.7848101,5.81856886 C83.7848101,-0.257380506 71,-2 61,7.3375562 C54.3333333,13.5625937 51.0421941,19.638543 51.1265823,25.5654043 Z" id="路径-3备份"></path>
            </g>
        </g>
    </g>
</svg>