<svg id="Layer_1" data-name="Layer 1" xmlns="http://www.w3.org/2000/svg" xmlns:xlink="http://www.w3.org/1999/xlink" viewBox="0 0 125.23 50.18"><defs><mask id="mask" x="7.32" y="15.62" width="28.03" height="32.38" maskUnits="userSpaceOnUse"><g transform="translate(-0.1 6.18)"><g id="mask-2"><path id="path-1" d="M21.44,37.48a14,14,0,0,0,14-14h0a14,14,0,0,0-14-14h0a14,14,0,0,0-14,14h0a14,14,0,0,0,14,14" fill="#fff" fill-rule="evenodd"/></g></g></mask><mask id="mask-2-2" x="7.32" y="13.71" width="28.03" height="34.28" maskUnits="userSpaceOnUse"><g transform="translate(-0.1 6.18)"><g id="mask-4"><path id="path-3" d="M21.44,37.48a14,14,0,0,0,14-14h0a14,14,0,0,0-14-14h0a14,14,0,0,0-14,14h0a14,14,0,0,0,14,14" fill="#fff" fill-rule="evenodd"/></g></g></mask><mask id="mask-3" x="7.32" y="15.62" width="28.03" height="32.38" maskUnits="userSpaceOnUse"><g transform="translate(-0.1 6.18)"><g id="mask-6"><path id="path-5" d="M21.44,37.48a14,14,0,0,0,14-14h0a14,14,0,0,0-14-14h0a14,14,0,0,0-14,14h0a14,14,0,0,0,14,14" fill="#fff" fill-rule="evenodd"/></g></g></mask><mask id="mask-4-2" x="7.32" y="0" width="28.32" height="48" maskUnits="userSpaceOnUse"><g transform="translate(-0.1 6.18)"><g id="mask-8"><path id="path-7" d="M21.44,37.48a14,14,0,0,0,14-14h0a14,14,0,0,0-14-14h0a14,14,0,0,0-14,14h0a14,14,0,0,0,14,14" fill="#fff" fill-rule="evenodd"/></g></g></mask><mask id="mask-5" x="0" y="14.79" width="43.25" height="35.39" maskUnits="userSpaceOnUse"><g transform="translate(-0.1 6.18)"><g id="mask-10"><polygon id="path-9" points="0.1 44 0.1 8.61 43.35 8.61 43.35 44 0.1 44" fill="#fff" fill-rule="evenodd"/></g></g></mask><linearGradient id="linear-gradient" x1="-551.93" y1="501.9" x2="-551" y2="501.9" gradientTransform="matrix(24, 0, 0, -15, 13258, 7541.54)" gradientUnits="userSpaceOnUse"><stop offset="0" stop-color="#fceb7f"/><stop offset="1" stop-color="#f8643b"/></linearGradient></defs><title>logo</title><g id="页面-1"><g id="切图"><g id="logo"><g id="编组"><g mask="url(#mask)"><path id="Fill-1" d="M12.44,21.82H8c-.22,0-.41.42-.41.93V41.82h5.26V22.75c0-.51-.18-.93-.41-.93" transform="translate(-0.1 6.18)" fill="#476afa" fill-rule="evenodd"/></g></g><g mask="url(#mask-2-2)"><path id="Fill-3" d="M20.07,7.54H15.63a.43.43,0,0,0-.41.46V41.82h5.26V8a.43.43,0,0,0-.41-.46" transform="translate(-0.1 6.18)" fill="#00a0fa" fill-rule="evenodd"/></g><g mask="url(#mask-3)"><path id="Fill-5" d="M27.7,19.42H23.26a.44.44,0,0,0-.41.46V41.82h5.26V19.88a.44.44,0,0,0-.41-.46" transform="translate(-0.1 6.18)" fill="#00b7f8" fill-rule="evenodd"/></g><g mask="url(#mask-4-2)"><path id="Fill-7" d="M35.33-6.18H30.89a.44.44,0,0,0-.41.46V41.82h5.26V-5.72a.44.44,0,0,0-.41-.46" transform="translate(-0.1 6.18)" fill="#27cff9" fill-rule="evenodd"/></g><g mask="url(#mask-5)"><path id="Fill-11" d="M43.35,22.37A21.63,21.63,0,1,1,4.5,9.29a1.72,1.72,0,0,1,2.74,2.08,18,18,0,0,0-3.71,11A18.19,18.19,0,1,0,36.62,11.93a1.72,1.72,0,1,1,2.81-2,21.51,21.51,0,0,1,3.92,12.41" transform="translate(-0.1 6.18)" fill="#5644ed" fill-rule="evenodd"/></g><path id="Fill-13" d="M20.48,23.29H15.22V8.73c0-.25.28-.44.62-.44h4c.35,0,.62.19.62.44Z" transform="translate(-0.1 6.18)" fill="#00a0fa" fill-rule="evenodd"/><path id="Fill-15" d="M28.11,23.29H22.85v-8.6c0-.22.27-.4.62-.4h4c.34,0,.62.18.62.4Z" transform="translate(-0.1 6.18)" fill="#00b7f8" fill-rule="evenodd"/><path id="Fill-17" d="M35.45,23.29h-5V.77a.55.55,0,0,1,.61-.48h3.74c.35,0,.62.21.62.48Z" transform="translate(-0.1 6.18)" fill="#27cff9" fill-rule="evenodd"/><path id="形状结合" d="M32.5,5.54a1.5,1.5,0,1,1,0,3h0l-5.66,9.8A1.5,1.5,0,1,1,24,19a.76.76,0,0,1,0-.15l-5.52-3.72a1.49,1.49,0,0,1-1,.37,1.51,1.51,0,0,1-1-.39L13,17.8A1.94,1.94,0,0,1,13,18a1.5,1.5,0,1,1-.64-1.23L16,14.07v0a1.49,1.49,0,0,1,1.36-1.49h.14A1.5,1.5,0,0,1,19,14v.07l5.57,3.76a1.45,1.45,0,0,1,.93-.33,1.42,1.42,0,0,1,.42.06l5.5-9.52A1.5,1.5,0,0,1,32.5,5.54Z" transform="translate(-0.1 6.18)" fill-rule="evenodd" fill="url(#linear-gradient)"/><path id="Fill-21" d="M61.74,31.93a9,9,0,0,1,0-17.93,8.53,8.53,0,0,1,5.38,1.9,1.24,1.24,0,0,1,.2,1.7,1.16,1.16,0,0,1-1.66.21,6.18,6.18,0,0,0-3.92-1.39,6.55,6.55,0,0,0,0,13.09,6.23,6.23,0,0,0,3.79-1.28,1.16,1.16,0,0,1,1.65.25,1.24,1.24,0,0,1-.25,1.7,8.5,8.5,0,0,1-5.19,1.75" transform="translate(-0.1 6.18)" fill-rule="evenodd"/><path id="Fill-23" d="M100,16.43A6.54,6.54,0,1,0,106.5,23,6.54,6.54,0,0,0,100,16.43m0,15.5a9,9,0,1,1,9-9,9,9,0,0,1-9,9" transform="translate(-0.1 6.18)" fill-rule="evenodd"/><path id="Fill-23备份" d="M80,16.43A6.54,6.54,0,1,0,86.5,23,6.54,6.54,0,0,0,80,16.43m0,15.5a9,9,0,1,1,9-9,9,9,0,0,1-9,9" transform="translate(-0.1 6.18)" fill-rule="evenodd"/><path id="Fill-25" d="M124.11,29.5h-8.68V15.22a1.22,1.22,0,1,0-2.43,0v15.5a1.21,1.21,0,0,0,1.22,1.21h9.89a1.22,1.22,0,1,0,0-2.43" transform="translate(-0.1 6.18)" fill-rule="evenodd"/></g></g></g></svg>